<?xml version="1.0" encoding="UTF-8"?>
<svg xmlns="http://www.w3.org/2000/svg" xmlns:xlink="http://www.w3.org/1999/xlink" width="300pt" height="300pt" viewBox="0 0 300 300" version="1.1">
<defs>
<clipPath id="clip1">
  <path d="M 289 165 L 299.964844 165 L 299.964844 177 L 289 177 Z M 289 165 "/>
</clipPath>
<clipPath id="clip2">
  <path d="M 291 154 L 299.964844 154 L 299.964844 167 L 291 167 Z M 291 154 "/>
</clipPath>
<clipPath id="clip3">
  <path d="M 291 144 L 299.964844 144 L 299.964844 157 L 291 157 Z M 291 144 "/>
</clipPath>
<clipPath id="clip4">
  <path d="M 291 134 L 299.964844 134 L 299.964844 147 L 291 147 Z M 291 134 "/>
</clipPath>
<clipPath id="clip5">
  <path d="M 0.0351562 123 L 11 123 L 11 135 L 0.0351562 135 Z M 0.0351562 123 "/>
</clipPath>
<clipPath id="clip6">
  <path d="M 0.0351562 133 L 9 133 L 9 146 L 0.0351562 146 Z M 0.0351562 133 "/>
</clipPath>
<clipPath id="clip7">
  <path d="M 0.0351562 143 L 9 143 L 9 156 L 0.0351562 156 Z M 0.0351562 143 "/>
</clipPath>
<clipPath id="clip8">
  <path d="M 0.0351562 153 L 9 153 L 9 166 L 0.0351562 166 Z M 0.0351562 153 "/>
</clipPath>
<clipPath id="clip9">
  <path d="M 160 57 L 166 57 L 166 71 L 160 71 Z M 160 57 "/>
</clipPath>
<clipPath id="clip10">
  <path d="M 75.785156 215.347656 L 120.832031 -81.195312 L 417.445312 -36.136719 L 372.394531 260.40625 Z M 75.785156 215.347656 "/>
</clipPath>
<clipPath id="clip11">
  <path d="M 188 219 L 198 219 L 198 232 L 188 232 Z M 188 219 "/>
</clipPath>
<clipPath id="clip12">
  <path d="M -86.191406 124.429688 L 174.8125 -23.375 L 322.652344 237.683594 L 61.648438 385.492188 Z M -86.191406 124.429688 "/>
</clipPath>
<clipPath id="clip13">
  <path d="M 170 227 L 177 227 L 177 241 L 170 241 Z M 170 227 "/>
</clipPath>
<clipPath id="clip14">
  <path d="M -55.753906 54.195312 L 233.472656 -25.226562 L 312.914062 264.066406 L 23.6875 343.488281 Z M -55.753906 54.195312 "/>
</clipPath>
</defs>
<g id="surface1">
<path style=" stroke:none;fill-rule:nonzero;fill:rgb(86.27451%,5.098039%,8.235294%);fill-opacity:1;" d="M 254.464844 254.226562 L 249.105469 254.226562 C 248.089844 254.226562 247.617188 252.804688 248.429688 252.125 L 249.988281 250.769531 C 251.277344 249.617188 252.972656 249.003906 254.601562 249.003906 L 259.957031 249.003906 C 260.972656 249.003906 261.449219 250.363281 260.636719 251.109375 L 259.074219 252.464844 C 257.785156 253.617188 256.160156 254.226562 254.464844 254.226562 "/>
<path style=" stroke:none;fill-rule:nonzero;fill:rgb(86.27451%,5.098039%,8.235294%);fill-opacity:1;" d="M 261.515625 246.699219 L 256.160156 247.105469 C 255.140625 247.175781 254.601562 245.816406 255.347656 245.074219 L 256.769531 243.648438 C 257.992188 242.425781 259.617188 241.683594 261.246094 241.613281 L 266.601562 241.207031 C 267.621094 241.140625 268.164062 242.496094 267.417969 243.242188 L 265.992188 244.664062 C 264.773438 245.816406 263.210938 246.5625 261.515625 246.699219 "/>
<path style=" stroke:none;fill-rule:nonzero;fill:rgb(86.27451%,5.098039%,8.235294%);fill-opacity:1;" d="M 267.957031 238.628906 L 262.601562 239.375 C 261.585938 239.511719 260.972656 238.222656 261.652344 237.410156 L 263.007812 235.851562 C 264.160156 234.5625 265.722656 233.679688 267.347656 233.476562 L 272.636719 232.730469 C 273.65625 232.59375 274.265625 233.882812 273.585938 234.695312 L 272.230469 236.257812 C 271.144531 237.613281 269.652344 238.425781 267.957031 238.628906 "/>
<path style=" stroke:none;fill-rule:nonzero;fill:rgb(86.27451%,5.098039%,8.235294%);fill-opacity:1;" d="M 273.859375 230.222656 L 268.570312 231.304688 C 267.550781 231.511719 266.804688 230.289062 267.484375 229.40625 L 268.703125 227.78125 C 269.722656 226.425781 271.214844 225.476562 272.839844 225.066406 L 278.0625 223.984375 C 279.078125 223.78125 279.824219 225 279.148438 225.882812 L 277.925781 227.507812 C 276.976562 228.933594 275.484375 229.882812 273.859375 230.222656 "/>
<path style=" stroke:none;fill-rule:nonzero;fill:rgb(86.27451%,5.098039%,8.235294%);fill-opacity:1;" d="M 279.148438 221.40625 L 273.992188 222.898438 C 272.976562 223.167969 272.164062 221.949219 272.773438 221.066406 L 273.925781 219.371094 C 274.875 217.949219 276.300781 216.863281 277.925781 216.386719 L 283.082031 214.894531 C 284.097656 214.625 284.910156 215.84375 284.300781 216.726562 L 283.214844 218.421875 C 282.199219 219.847656 280.773438 220.929688 279.148438 221.40625 "/>
<path style=" stroke:none;fill-rule:nonzero;fill:rgb(86.27451%,5.098039%,8.235294%);fill-opacity:1;" d="M 283.828125 212.183594 L 278.808594 214.015625 C 277.859375 214.355469 276.910156 213.199219 277.453125 212.320312 L 278.46875 210.554688 C 279.351562 209.0625 280.640625 207.910156 282.199219 207.300781 L 287.21875 205.46875 C 288.167969 205.132812 289.117188 206.285156 288.574219 207.164062 L 287.554688 208.929688 C 286.742188 210.488281 285.453125 211.640625 283.828125 212.183594 "/>
<path style=" stroke:none;fill-rule:nonzero;fill:rgb(86.27451%,5.098039%,8.235294%);fill-opacity:1;" d="M 287.828125 202.691406 L 282.945312 204.859375 C 281.996094 205.265625 281.046875 204.183594 281.453125 203.230469 L 282.335938 201.402344 C 283.082031 199.839844 284.300781 198.621094 285.859375 197.875 L 290.742188 195.707031 C 291.691406 195.296875 292.640625 196.382812 292.234375 197.332031 L 291.355469 199.164062 C 290.609375 200.792969 289.386719 202.011719 287.828125 202.691406 "/>
<path style=" stroke:none;fill-rule:nonzero;fill:rgb(86.27451%,5.098039%,8.235294%);fill-opacity:1;" d="M 291.21875 192.992188 L 286.472656 195.5 C 285.589844 195.976562 284.503906 194.960938 284.910156 194.011719 L 285.65625 192.109375 C 286.269531 190.484375 287.421875 189.195312 288.914062 188.382812 L 293.660156 185.871094 C 294.542969 185.398438 295.625 186.414062 295.21875 187.363281 L 294.472656 189.261719 C 293.863281 190.890625 292.710938 192.179688 291.21875 192.992188 "/>
<path style=" stroke:none;fill-rule:nonzero;fill:rgb(86.27451%,5.098039%,8.235294%);fill-opacity:1;" d="M 293.863281 183.023438 L 289.320312 185.871094 C 288.4375 186.414062 287.351562 185.464844 287.625 184.449219 L 288.234375 182.480469 C 288.777344 180.855469 289.792969 179.429688 291.21875 178.546875 L 295.761719 175.699219 C 296.644531 175.160156 297.726562 176.109375 297.457031 177.125 L 296.847656 179.089844 C 296.371094 180.785156 295.285156 182.144531 293.863281 183.023438 "/>
<g clip-path="url(#clip1)" clip-rule="nonzero">
<path style=" stroke:none;fill-rule:nonzero;fill:rgb(86.27451%,5.098039%,8.235294%);fill-opacity:1;" d="M 295.828125 172.921875 L 291.488281 176.109375 C 290.675781 176.71875 289.457031 175.835938 289.726562 174.820312 L 290.203125 172.851562 C 290.609375 171.15625 291.558594 169.664062 292.914062 168.714844 L 297.253906 165.527344 C 298.066406 164.917969 299.289062 165.800781 299.015625 166.816406 L 298.542969 168.785156 C 298.136719 170.480469 297.1875 171.902344 295.828125 172.921875 "/>
</g>
<g clip-path="url(#clip2)" clip-rule="nonzero">
<path style=" stroke:none;fill-rule:nonzero;fill:rgb(86.27451%,5.098039%,8.235294%);fill-opacity:1;" d="M 297.050781 162.679688 L 292.980469 166.140625 C 292.167969 166.816406 290.945312 166.003906 291.082031 164.988281 L 291.421875 162.953125 C 291.691406 161.257812 292.574219 159.695312 293.863281 158.613281 L 298 155.152344 C 298.8125 154.476562 300.035156 155.289062 299.832031 156.304688 L 299.492188 158.339844 C 299.21875 160.105469 298.339844 161.597656 297.050781 162.679688 "/>
</g>
<g clip-path="url(#clip3)" clip-rule="nonzero">
<path style=" stroke:none;fill-rule:nonzero;fill:rgb(86.27451%,5.098039%,8.235294%);fill-opacity:1;" d="M 297.59375 152.441406 L 293.726562 156.171875 C 292.980469 156.917969 291.691406 156.238281 291.761719 155.152344 L 291.964844 153.121094 C 292.101562 151.355469 292.847656 149.796875 294.066406 148.644531 L 297.933594 144.914062 C 298.675781 144.167969 299.964844 144.914062 299.898438 145.929688 L 299.695312 147.964844 C 299.558594 149.660156 298.8125 151.21875 297.59375 152.441406 "/>
</g>
<g clip-path="url(#clip4)" clip-rule="nonzero">
<path style=" stroke:none;fill-rule:nonzero;fill:rgb(86.27451%,5.098039%,8.235294%);fill-opacity:1;" d="M 297.390625 142.132812 L 293.796875 146.132812 C 293.117188 146.878906 291.761719 146.339844 291.761719 145.253906 L 291.761719 143.21875 C 291.828125 141.457031 292.4375 139.828125 293.589844 138.609375 L 297.1875 134.605469 C 297.863281 133.859375 299.21875 134.402344 299.21875 135.488281 L 299.152344 137.523438 C 299.152344 139.21875 298.542969 140.84375 297.390625 142.132812 "/>
</g>
<path style=" stroke:none;fill-rule:nonzero;fill:rgb(86.27451%,5.098039%,8.235294%);fill-opacity:1;" d="M 296.507812 131.894531 L 293.183594 136.097656 C 292.574219 136.914062 291.152344 136.4375 291.152344 135.351562 L 291.015625 133.316406 C 290.945312 131.621094 291.421875 129.925781 292.507812 128.570312 L 295.828125 124.367188 C 296.441406 123.554688 297.863281 124.027344 297.863281 125.113281 L 297.933594 127.148438 C 298.066406 128.84375 297.523438 130.539062 296.507812 131.894531 "/>
<path style=" stroke:none;fill-rule:nonzero;fill:rgb(86.27451%,5.098039%,8.235294%);fill-opacity:1;" d="M 294.878906 121.722656 L 291.894531 126.199219 C 291.285156 127.078125 289.929688 126.671875 289.792969 125.585938 L 289.523438 123.554688 C 289.320312 121.859375 289.726562 120.09375 290.675781 118.738281 L 293.660156 114.261719 C 294.203125 113.382812 295.625 113.789062 295.761719 114.875 L 296.03125 116.90625 C 296.238281 118.601562 295.828125 120.296875 294.878906 121.722656 "/>
<path style=" stroke:none;fill-rule:nonzero;fill:rgb(86.27451%,5.098039%,8.235294%);fill-opacity:1;" d="M 292.507812 111.6875 L 289.863281 116.296875 C 289.320312 117.179688 287.894531 116.90625 287.691406 115.824219 L 287.285156 113.789062 C 286.945312 112.09375 287.21875 110.328125 288.097656 108.90625 L 290.742188 104.292969 C 291.285156 103.414062 292.710938 103.683594 292.914062 104.769531 L 293.320312 106.734375 C 293.660156 108.5 293.386719 110.195312 292.507812 111.6875 "/>
<path style=" stroke:none;fill-rule:nonzero;fill:rgb(86.27451%,5.098039%,8.235294%);fill-opacity:1;" d="M 289.523438 101.785156 L 287.148438 106.601562 C 286.675781 107.480469 285.25 107.347656 284.980469 106.328125 L 284.4375 104.363281 C 283.960938 102.667969 284.164062 100.972656 284.910156 99.414062 L 287.285156 94.597656 C 287.761719 93.648438 289.183594 93.851562 289.457031 94.867188 L 289.996094 96.835938 C 290.40625 98.53125 290.269531 100.292969 289.523438 101.785156 "/>
<path style=" stroke:none;fill-rule:nonzero;fill:rgb(86.27451%,5.098039%,8.235294%);fill-opacity:1;" d="M 285.792969 92.222656 L 283.757812 97.175781 C 283.351562 98.125 281.929688 98.054688 281.589844 97.039062 L 280.910156 95.140625 C 280.367188 93.511719 280.367188 91.75 281.046875 90.191406 L 283.082031 85.238281 C 283.488281 84.289062 284.910156 84.359375 285.25 85.375 L 285.929688 87.273438 C 286.472656 88.902344 286.472656 90.664062 285.792969 92.222656 "/>
<path style=" stroke:none;fill-rule:nonzero;fill:rgb(86.27451%,5.098039%,8.235294%);fill-opacity:1;" d="M 281.453125 82.867188 L 279.757812 87.953125 C 279.417969 88.902344 277.996094 88.96875 277.589844 87.953125 L 276.773438 86.054688 C 276.097656 84.425781 276.027344 82.730469 276.503906 81.101562 L 278.128906 76.015625 C 278.46875 75.066406 279.894531 75 280.300781 76.015625 L 281.113281 77.914062 C 281.859375 79.542969 281.996094 81.238281 281.453125 82.867188 "/>
<path style=" stroke:none;fill-rule:nonzero;fill:rgb(86.27451%,5.098039%,8.235294%);fill-opacity:1;" d="M 276.433594 73.847656 L 275.148438 79.070312 C 274.875 80.085938 273.453125 80.152344 272.976562 79.203125 L 272.027344 77.375 C 271.214844 75.8125 271.078125 74.117188 271.417969 72.421875 L 272.707031 67.203125 C 272.976562 66.183594 274.402344 66.117188 274.875 67.066406 L 275.824219 68.898438 C 276.640625 70.523438 276.84375 72.21875 276.433594 73.847656 "/>
<path style=" stroke:none;fill-rule:nonzero;fill:rgb(86.27451%,5.098039%,8.235294%);fill-opacity:1;" d="M 270.808594 65.234375 L 269.859375 70.523438 C 269.652344 71.542969 268.230469 71.746094 267.6875 70.863281 L 266.671875 69.101562 C 265.789062 67.609375 265.449219 65.914062 265.722656 64.21875 L 266.671875 58.929688 C 266.875 57.910156 268.296875 57.707031 268.839844 58.589844 L 269.925781 60.351562 C 270.808594 61.84375 271.078125 63.609375 270.808594 65.234375 "/>
<path style=" stroke:none;fill-rule:nonzero;fill:rgb(86.27451%,5.098039%,8.235294%);fill-opacity:1;" d="M 264.636719 57.03125 L 264.09375 62.386719 C 264.027344 63.402344 262.535156 63.742188 261.921875 62.863281 L 260.769531 61.167969 C 259.753906 59.742188 259.347656 58.046875 259.480469 56.351562 L 260.023438 50.996094 C 260.160156 49.976562 261.585938 49.636719 262.195312 50.519531 L 263.347656 52.214844 C 264.363281 53.640625 264.773438 55.335938 264.636719 57.03125 "/>
<path style=" stroke:none;fill-rule:nonzero;fill:rgb(86.27451%,5.098039%,8.235294%);fill-opacity:1;" d="M 257.855469 49.230469 L 257.652344 54.589844 C 257.582031 55.605469 256.226562 56.011719 255.550781 55.199219 L 254.261719 53.640625 C 253.175781 52.28125 252.632812 50.65625 252.632812 48.960938 L 252.835938 43.601562 C 252.90625 42.585938 254.261719 42.179688 254.9375 42.992188 L 256.226562 44.550781 C 257.3125 45.910156 257.921875 47.605469 257.855469 49.230469 "/>
<path style=" stroke:none;fill-rule:nonzero;fill:rgb(86.27451%,5.098039%,8.235294%);fill-opacity:1;" d="M 250.53125 41.976562 L 250.734375 47.332031 C 250.800781 48.351562 249.378906 48.890625 248.699219 48.078125 L 247.34375 46.585938 C 246.191406 45.296875 245.511719 43.671875 245.445312 42.042969 L 245.242188 36.6875 C 245.242188 35.667969 246.597656 35.125 247.34375 35.941406 L 248.699219 37.433594 C 249.785156 38.71875 250.464844 40.28125 250.53125 41.976562 "/>
<path style=" stroke:none;fill-rule:nonzero;fill:rgb(86.27451%,5.098039%,8.235294%);fill-opacity:1;" d="M 242.800781 35.261719 L 243.34375 40.621094 C 243.480469 41.636719 242.121094 42.246094 241.375 41.5 L 239.882812 40.078125 C 238.597656 38.925781 237.851562 37.296875 237.648438 35.667969 L 237.105469 30.3125 C 236.96875 29.292969 238.324219 28.683594 239.070312 29.429688 L 240.5625 30.855469 C 241.785156 32.007812 242.597656 33.566406 242.800781 35.261719 "/>
<path style=" stroke:none;fill-rule:nonzero;fill:rgb(86.27451%,5.098039%,8.235294%);fill-opacity:1;" d="M 234.527344 29.023438 L 235.476562 34.3125 C 235.679688 35.328125 234.390625 36.007812 233.511719 35.328125 L 231.949219 34.042969 C 230.59375 32.957031 229.714844 31.464844 229.441406 29.769531 L 228.492188 24.480469 C 228.289062 23.464844 229.578125 22.785156 230.390625 23.464844 L 231.949219 24.75 C 233.375 25.902344 234.257812 27.394531 234.527344 29.023438 "/>
<path style=" stroke:none;fill-rule:nonzero;fill:rgb(86.27451%,5.098039%,8.235294%);fill-opacity:1;" d="M 225.914062 23.464844 L 227.203125 28.683594 C 227.476562 29.703125 226.1875 30.449219 225.371094 29.835938 L 223.746094 28.683594 C 222.320312 27.667969 221.304688 26.242188 220.898438 24.617188 L 219.609375 19.394531 C 219.335938 18.378906 220.625 17.632812 221.441406 18.242188 L 223.066406 19.394531 C 224.492188 20.410156 225.507812 21.835938 225.914062 23.464844 "/>
<path style=" stroke:none;fill-rule:nonzero;fill:rgb(86.27451%,5.098039%,8.235294%);fill-opacity:1;" d="M 216.894531 18.445312 L 218.523438 23.53125 C 218.863281 24.480469 217.640625 25.363281 216.761719 24.820312 L 214.996094 23.734375 C 213.507812 22.851562 212.421875 21.496094 211.878906 19.867188 L 210.25 14.78125 C 209.910156 13.832031 211.132812 12.953125 212.015625 13.496094 L 213.777344 14.578125 C 215.269531 15.527344 216.355469 16.886719 216.894531 18.445312 "/>
<path style=" stroke:none;fill-rule:nonzero;fill:rgb(86.27451%,5.098039%,8.235294%);fill-opacity:1;" d="M 207.539062 14.105469 L 209.574219 19.054688 C 209.980469 20.003906 208.828125 20.953125 207.878906 20.480469 L 206.046875 19.53125 C 204.488281 18.714844 203.335938 17.425781 202.65625 15.867188 L 200.621094 10.917969 C 200.214844 9.96875 201.367188 9.019531 202.316406 9.492188 L 204.148438 10.441406 C 205.707031 11.257812 206.929688 12.546875 207.539062 14.105469 "/>
<path style=" stroke:none;fill-rule:nonzero;fill:rgb(86.27451%,5.098039%,8.235294%);fill-opacity:1;" d="M 197.910156 10.441406 L 200.28125 15.257812 C 200.757812 16.207031 199.671875 17.222656 198.722656 16.816406 L 196.824219 16.003906 C 195.195312 15.324219 193.976562 14.105469 193.230469 12.613281 L 190.855469 7.796875 C 190.382812 6.847656 191.46875 5.832031 192.417969 6.238281 L 194.316406 7.050781 C 195.875 7.730469 197.164062 8.953125 197.910156 10.441406 "/>
<path style=" stroke:none;fill-rule:nonzero;fill:rgb(86.27451%,5.098039%,8.235294%);fill-opacity:1;" d="M 188.078125 7.460938 L 190.789062 12.136719 C 191.332031 13.019531 190.3125 14.105469 189.296875 13.765625 L 187.398438 13.085938 C 185.769531 12.546875 184.414062 11.390625 183.53125 9.96875 L 180.820312 5.355469 C 180.277344 4.476562 181.296875 3.390625 182.3125 3.730469 L 184.210938 4.40625 C 185.839844 4.882812 187.195312 5.96875 188.078125 7.460938 "/>
<path style=" stroke:none;fill-rule:nonzero;fill:rgb(86.27451%,5.098039%,8.235294%);fill-opacity:1;" d="M 178.039062 5.152344 L 181.023438 9.628906 C 181.632812 10.511719 180.683594 11.664062 179.667969 11.390625 L 177.703125 10.851562 C 176.007812 10.375 174.582031 9.359375 173.632812 8 L 170.648438 3.527344 C 170.105469 2.644531 170.988281 1.492188 172.003906 1.761719 L 173.972656 2.304688 C 175.667969 2.710938 177.089844 3.730469 178.039062 5.152344 "/>
<path style=" stroke:none;fill-rule:nonzero;fill:rgb(86.27451%,5.098039%,8.235294%);fill-opacity:1;" d="M 167.867188 3.527344 L 171.191406 7.730469 C 171.800781 8.542969 170.988281 9.765625 169.96875 9.5625 L 168.003906 9.15625 C 166.308594 8.816406 164.816406 7.933594 163.730469 6.578125 L 160.410156 2.375 C 159.796875 1.558594 160.613281 0.339844 161.628906 0.542969 L 163.597656 0.949219 C 165.292969 1.289062 166.785156 2.238281 167.867188 3.527344 "/>
<path style=" stroke:none;fill-rule:nonzero;fill:rgb(86.27451%,5.098039%,8.235294%);fill-opacity:1;" d="M 157.5625 2.644531 L 161.15625 6.644531 C 161.832031 7.390625 161.085938 8.679688 160.070312 8.542969 L 158.035156 8.273438 C 156.273438 8.070312 154.78125 7.257812 153.628906 5.96875 L 150.035156 2.035156 C 149.355469 1.289062 150.101562 0 151.117188 0.136719 L 153.152344 0.40625 C 154.917969 0.609375 156.476562 1.425781 157.5625 2.644531 "/>
<path style=" stroke:none;fill-rule:nonzero;fill:rgb(86.27451%,5.098039%,8.235294%);fill-opacity:1;" d="M 147.253906 2.507812 L 151.117188 6.238281 C 151.863281 6.917969 151.1875 8.273438 150.167969 8.207031 L 148.136719 8.070312 C 146.371094 8 144.8125 7.257812 143.589844 6.101562 L 139.726562 2.375 C 138.980469 1.695312 139.589844 0.339844 140.675781 0.40625 L 142.710938 0.542969 C 144.472656 0.609375 146.03125 1.289062 147.253906 2.507812 "/>
<path style=" stroke:none;fill-rule:nonzero;fill:rgb(86.27451%,5.098039%,8.235294%);fill-opacity:1;" d="M 137.015625 3.050781 L 141.152344 6.511719 C 141.964844 7.1875 141.421875 8.542969 140.335938 8.542969 L 138.300781 8.542969 C 136.539062 8.613281 134.910156 8 133.625 6.917969 L 129.488281 3.457031 C 128.671875 2.78125 129.214844 1.425781 130.300781 1.425781 L 132.335938 1.425781 C 134.03125 1.355469 135.726562 1.964844 137.015625 3.050781 "/>
<path style=" stroke:none;fill-rule:nonzero;fill:rgb(86.27451%,5.098039%,8.235294%);fill-opacity:1;" d="M 126.773438 4.339844 L 131.113281 7.460938 C 131.929688 8.070312 131.519531 9.425781 130.4375 9.5625 L 128.402344 9.765625 C 126.707031 9.902344 125.011719 9.425781 123.585938 8.476562 L 119.246094 5.289062 C 118.433594 4.679688 118.839844 3.253906 119.925781 3.1875 L 121.960938 3.050781 C 123.722656 2.847656 125.417969 3.324219 126.773438 4.339844 "/>
<path style=" stroke:none;fill-rule:nonzero;fill:rgb(86.27451%,5.098039%,8.235294%);fill-opacity:1;" d="M 116.671875 6.304688 L 121.214844 9.15625 C 122.09375 9.695312 121.757812 11.121094 120.671875 11.324219 L 118.636719 11.664062 C 116.941406 11.933594 115.179688 11.597656 113.753906 10.714844 L 109.210938 7.867188 C 108.328125 7.324219 108.667969 5.898438 109.753906 5.695312 L 111.789062 5.355469 C 113.484375 5.019531 115.246094 5.355469 116.671875 6.304688 "/>
<path style=" stroke:none;fill-rule:nonzero;fill:rgb(86.27451%,5.098039%,8.235294%);fill-opacity:1;" d="M 106.703125 8.953125 L 111.449219 11.460938 C 112.332031 11.933594 112.128906 13.359375 111.042969 13.628906 L 109.074219 14.105469 C 107.378906 14.511719 105.617188 14.242188 104.191406 13.496094 L 99.445312 10.984375 C 98.566406 10.511719 98.769531 9.085938 99.851562 8.816406 L 101.820312 8.339844 C 103.515625 7.933594 105.210938 8.136719 106.703125 8.953125 "/>
<path style=" stroke:none;fill-rule:nonzero;fill:rgb(86.27451%,5.098039%,8.235294%);fill-opacity:1;" d="M 96.9375 12.339844 L 101.820312 14.511719 C 102.769531 14.917969 102.632812 16.410156 101.617188 16.683594 L 99.648438 17.292969 C 98.023438 17.765625 96.257812 17.699219 94.699219 17.019531 L 89.816406 14.851562 C 88.867188 14.445312 89.003906 12.953125 90.019531 12.679688 L 91.988281 12.070312 C 93.683594 11.527344 95.445312 11.597656 96.9375 12.339844 "/>
<path style=" stroke:none;fill-rule:nonzero;fill:rgb(86.27451%,5.098039%,8.235294%);fill-opacity:1;" d="M 87.511719 16.34375 L 92.53125 18.171875 C 93.480469 18.511719 93.480469 20.003906 92.460938 20.34375 L 90.5625 21.089844 C 88.933594 21.699219 87.171875 21.769531 85.613281 21.15625 L 80.59375 19.328125 C 79.644531 18.988281 79.644531 17.496094 80.664062 17.15625 L 82.5625 16.410156 C 84.121094 15.800781 85.882812 15.800781 87.511719 16.34375 "/>
<path style=" stroke:none;fill-rule:nonzero;fill:rgb(86.27451%,5.098039%,8.235294%);fill-opacity:1;" d="M 78.289062 21.023438 L 83.441406 22.511719 C 84.460938 22.785156 84.460938 24.277344 83.511719 24.683594 L 81.679688 25.566406 C 80.121094 26.3125 78.355469 26.445312 76.730469 25.972656 L 71.574219 24.480469 C 70.558594 24.207031 70.558594 22.71875 71.507812 22.308594 L 73.339844 21.429688 C 74.964844 20.683594 76.730469 20.546875 78.289062 21.023438 "/>
<path style=" stroke:none;fill-rule:nonzero;fill:rgb(86.27451%,5.098039%,8.235294%);fill-opacity:1;" d="M 69.472656 26.3125 L 74.695312 27.394531 C 75.710938 27.597656 75.847656 29.089844 74.898438 29.566406 L 73.136719 30.582031 C 71.644531 31.398438 69.878906 31.667969 68.253906 31.328125 L 63.03125 30.242188 C 62.015625 30.039062 61.878906 28.546875 62.761719 28.074219 L 64.523438 27.058594 C 66.152344 26.242188 67.847656 25.972656 69.472656 26.3125 "/>
<path style=" stroke:none;fill-rule:nonzero;fill:rgb(86.27451%,5.098039%,8.235294%);fill-opacity:1;" d="M 61.066406 32.277344 L 66.355469 33.023438 C 67.371094 33.160156 67.640625 34.585938 66.761719 35.195312 L 65.066406 36.28125 C 63.640625 37.230469 61.878906 37.636719 60.25 37.363281 L 54.894531 36.617188 C 53.875 36.484375 53.605469 35.058594 54.488281 34.449219 L 56.183594 33.363281 C 57.675781 32.414062 59.371094 32.007812 61.066406 32.277344 "/>
<path style=" stroke:none;fill-rule:nonzero;fill:rgb(86.27451%,5.098039%,8.235294%);fill-opacity:1;" d="M 53.0625 38.71875 L 58.421875 39.128906 C 59.4375 39.195312 59.777344 40.621094 58.960938 41.230469 L 57.335938 42.449219 C 55.980469 43.46875 54.285156 44.011719 52.589844 43.875 L 47.230469 43.535156 C 46.214844 43.46875 45.808594 42.042969 46.6875 41.433594 L 48.316406 40.210938 C 49.671875 39.128906 51.367188 38.652344 53.0625 38.71875 "/>
<path style=" stroke:none;fill-rule:nonzero;fill:rgb(86.27451%,5.098039%,8.235294%);fill-opacity:1;" d="M 45.535156 45.773438 L 50.894531 45.773438 C 51.910156 45.773438 52.382812 47.195312 51.570312 47.875 L 50.011719 49.230469 C 48.722656 50.382812 47.09375 50.996094 45.398438 50.996094 L 40.042969 50.996094 C 39.027344 50.996094 38.550781 49.570312 39.363281 48.890625 L 40.925781 47.535156 C 42.214844 46.382812 43.839844 45.773438 45.535156 45.773438 "/>
<path style=" stroke:none;fill-rule:nonzero;fill:rgb(86.27451%,5.098039%,8.235294%);fill-opacity:1;" d="M 38.484375 53.300781 L 43.839844 52.960938 C 44.859375 52.894531 45.398438 54.25 44.652344 54.996094 L 43.230469 56.417969 C 42.007812 57.640625 40.382812 58.386719 38.753906 58.523438 L 33.398438 58.929688 C 32.378906 58.996094 31.835938 57.640625 32.582031 56.894531 L 34.007812 55.46875 C 35.226562 54.183594 36.855469 53.4375 38.484375 53.300781 "/>
<path style=" stroke:none;fill-rule:nonzero;fill:rgb(86.27451%,5.098039%,8.235294%);fill-opacity:1;" d="M 32.042969 61.300781 L 37.332031 60.554688 C 38.347656 60.421875 38.957031 61.707031 38.28125 62.523438 L 36.921875 64.082031 C 35.769531 65.371094 34.210938 66.253906 32.582031 66.457031 L 27.292969 67.203125 C 26.277344 67.335938 25.597656 66.046875 26.34375 65.234375 L 27.703125 63.675781 C 28.855469 62.386719 30.347656 61.574219 32.042969 61.300781 "/>
<path style=" stroke:none;fill-rule:nonzero;fill:rgb(86.27451%,5.098039%,8.235294%);fill-opacity:1;" d="M 26.140625 69.777344 L 31.363281 68.695312 C 32.378906 68.488281 33.125 69.710938 32.449219 70.59375 L 31.226562 72.21875 C 30.210938 73.574219 28.71875 74.523438 27.023438 74.863281 L 21.800781 75.949219 C 20.785156 76.152344 20.039062 74.933594 20.714844 74.050781 L 21.9375 72.421875 C 23.023438 71.066406 24.515625 70.117188 26.140625 69.777344 "/>
<path style=" stroke:none;fill-rule:nonzero;fill:rgb(86.27451%,5.098039%,8.235294%);fill-opacity:1;" d="M 20.851562 78.59375 L 26.007812 77.101562 C 27.023438 76.832031 27.835938 78.050781 27.226562 78.933594 L 26.074219 80.628906 C 25.125 82.121094 23.699219 83.136719 22.074219 83.613281 L 16.917969 85.105469 C 15.902344 85.375 15.089844 84.15625 15.699219 83.273438 L 16.785156 81.578125 C 17.800781 80.085938 19.226562 79.070312 20.851562 78.59375 "/>
<path style=" stroke:none;fill-rule:nonzero;fill:rgb(86.27451%,5.098039%,8.235294%);fill-opacity:1;" d="M 16.171875 87.75 L 21.191406 85.917969 C 22.140625 85.578125 23.089844 86.730469 22.546875 87.613281 L 21.53125 89.375 C 20.648438 90.867188 19.359375 92.019531 17.800781 92.632812 L 12.78125 94.460938 C 11.832031 94.800781 10.882812 93.648438 11.425781 92.765625 L 12.445312 91.003906 C 13.257812 89.511719 14.613281 88.359375 16.171875 87.75 "/>
<path style=" stroke:none;fill-rule:nonzero;fill:rgb(86.27451%,5.098039%,8.235294%);fill-opacity:1;" d="M 12.171875 97.242188 L 17.054688 95.074219 C 18.003906 94.664062 18.953125 95.75 18.546875 96.699219 L 17.664062 98.53125 C 16.917969 100.089844 15.699219 101.3125 14.140625 101.988281 L 9.257812 104.160156 C 8.308594 104.566406 7.359375 103.480469 7.765625 102.53125 L 8.644531 100.699219 C 9.390625 99.207031 10.613281 97.921875 12.171875 97.242188 "/>
<path style=" stroke:none;fill-rule:nonzero;fill:rgb(86.27451%,5.098039%,8.235294%);fill-opacity:1;" d="M 8.78125 107.007812 L 13.527344 104.5 C 14.410156 104.023438 15.496094 105.039062 15.089844 105.988281 L 14.34375 107.890625 C 13.730469 109.515625 12.578125 110.804688 11.085938 111.617188 L 6.339844 114.128906 C 5.457031 114.601562 4.375 113.585938 4.78125 112.636719 L 5.527344 110.738281 C 6.203125 109.109375 7.359375 107.820312 8.78125 107.007812 "/>
<path style=" stroke:none;fill-rule:nonzero;fill:rgb(86.27451%,5.098039%,8.235294%);fill-opacity:1;" d="M 6.136719 116.976562 L 10.679688 114.128906 C 11.5625 113.585938 12.648438 114.535156 12.375 115.550781 L 11.765625 117.519531 C 11.222656 119.144531 10.207031 120.570312 8.78125 121.453125 L 4.238281 124.300781 C 3.355469 124.839844 2.273438 123.890625 2.542969 122.875 L 3.152344 120.910156 C 3.695312 119.214844 4.714844 117.855469 6.136719 116.976562 "/>
<g clip-path="url(#clip5)" clip-rule="nonzero">
<path style=" stroke:none;fill-rule:nonzero;fill:rgb(86.27451%,5.098039%,8.235294%);fill-opacity:1;" d="M 4.171875 127.078125 L 8.511719 123.890625 C 9.324219 123.28125 10.542969 124.164062 10.273438 125.179688 L 9.796875 127.148438 C 9.390625 128.84375 8.441406 130.335938 7.085938 131.285156 L 2.746094 134.402344 C 1.933594 135.011719 0.710938 134.132812 0.984375 133.113281 L 1.457031 131.148438 C 1.863281 129.519531 2.8125 128.027344 4.171875 127.078125 "/>
</g>
<g clip-path="url(#clip6)" clip-rule="nonzero">
<path style=" stroke:none;fill-rule:nonzero;fill:rgb(86.27451%,5.098039%,8.235294%);fill-opacity:1;" d="M 2.949219 137.320312 L 7.085938 133.859375 C 7.898438 133.183594 9.121094 133.996094 8.917969 135.011719 L 8.578125 137.046875 C 8.308594 138.742188 7.425781 140.304688 6.136719 141.386719 L 2.066406 144.777344 C 1.253906 145.457031 0.0351562 144.644531 0.238281 143.625 L 0.578125 141.589844 C 0.78125 139.894531 1.660156 138.402344 2.949219 137.320312 "/>
</g>
<g clip-path="url(#clip7)" clip-rule="nonzero">
<path style=" stroke:none;fill-rule:nonzero;fill:rgb(86.27451%,5.098039%,8.235294%);fill-opacity:1;" d="M 2.40625 147.558594 L 6.273438 143.828125 C 7.019531 143.152344 8.308594 143.828125 8.238281 144.847656 L 8.035156 146.878906 C 7.898438 148.574219 7.152344 150.203125 5.933594 151.355469 L 2.066406 155.085938 C 1.324219 155.765625 0.0351562 155.085938 0.101562 154.070312 L 0.304688 152.035156 C 0.441406 150.339844 1.1875 148.78125 2.40625 147.558594 "/>
</g>
<g clip-path="url(#clip8)" clip-rule="nonzero">
<path style=" stroke:none;fill-rule:nonzero;fill:rgb(86.27451%,5.098039%,8.235294%);fill-opacity:1;" d="M 2.609375 157.867188 L 6.203125 153.867188 C 6.882812 153.121094 8.238281 153.660156 8.238281 154.746094 L 8.171875 156.78125 C 8.171875 158.542969 7.492188 160.171875 6.339844 161.390625 L 2.746094 165.394531 C 2.066406 166.140625 0.710938 165.527344 0.710938 164.511719 L 0.78125 162.476562 C 0.847656 160.78125 1.457031 159.15625 2.609375 157.867188 "/>
</g>
<path style=" stroke:none;fill-rule:nonzero;fill:rgb(86.27451%,5.098039%,8.235294%);fill-opacity:1;" d="M 3.558594 168.105469 L 6.882812 163.902344 C 7.492188 163.085938 8.917969 163.5625 8.917969 164.648438 L 9.054688 166.683594 C 9.121094 168.378906 8.644531 170.074219 7.5625 171.429688 L 4.238281 175.632812 C 3.628906 176.445312 2.203125 175.972656 2.203125 174.886719 L 2.066406 172.851562 C 2 171.15625 2.476562 169.460938 3.558594 168.105469 "/>
<path style=" stroke:none;fill-rule:nonzero;fill:rgb(86.27451%,5.098039%,8.235294%);fill-opacity:1;" d="M 5.1875 178.277344 L 8.171875 173.800781 C 8.714844 172.921875 10.136719 173.328125 10.273438 174.414062 L 10.542969 176.445312 C 10.75 178.140625 10.339844 179.835938 9.390625 181.261719 L 6.410156 185.738281 C 5.867188 186.617188 4.441406 186.210938 4.304688 185.125 L 4.035156 183.09375 C 3.832031 181.398438 4.238281 179.703125 5.1875 178.277344 "/>
<path style=" stroke:none;fill-rule:nonzero;fill:rgb(86.27451%,5.098039%,8.235294%);fill-opacity:1;" d="M 7.492188 188.3125 L 10.207031 183.632812 C 10.75 182.753906 12.171875 183.023438 12.375 184.109375 L 12.78125 186.074219 C 13.121094 187.769531 12.851562 189.535156 11.96875 190.957031 L 9.257812 195.636719 C 8.714844 196.519531 7.289062 196.246094 7.085938 195.164062 L 6.679688 193.128906 C 6.339844 191.5 6.613281 189.804688 7.492188 188.3125 "/>
<path style=" stroke:none;fill-rule:nonzero;fill:rgb(86.27451%,5.098039%,8.235294%);fill-opacity:1;" d="M 10.476562 198.144531 L 12.851562 193.332031 C 13.324219 192.449219 14.75 192.585938 15.019531 193.601562 L 15.5625 195.570312 C 16.039062 197.265625 15.835938 198.960938 15.089844 200.519531 L 12.714844 205.335938 C 12.238281 206.285156 10.816406 206.082031 10.542969 205.0625 L 10.003906 203.097656 C 9.59375 201.402344 9.730469 199.707031 10.476562 198.144531 "/>
<path style=" stroke:none;fill-rule:nonzero;fill:rgb(86.27451%,5.098039%,8.235294%);fill-opacity:1;" d="M 14.207031 207.777344 L 16.242188 202.824219 C 16.648438 201.875 18.070312 201.945312 18.410156 202.960938 L 19.089844 204.859375 C 19.632812 206.488281 19.632812 208.25 18.953125 209.808594 L 16.917969 214.761719 C 16.511719 215.710938 15.089844 215.640625 14.75 214.625 L 14.070312 212.726562 C 13.527344 211.097656 13.597656 209.335938 14.207031 207.777344 "/>
<path style=" stroke:none;fill-rule:nonzero;fill:rgb(86.27451%,5.098039%,8.235294%);fill-opacity:1;" d="M 18.546875 217.132812 L 20.175781 212.046875 C 20.511719 211.03125 21.9375 211.03125 22.34375 212.046875 L 23.15625 213.945312 C 23.835938 215.507812 23.902344 217.269531 23.429688 218.898438 L 21.800781 223.984375 C 21.460938 224.933594 20.039062 224.933594 19.632812 223.984375 L 18.816406 222.085938 C 18.140625 220.457031 18.070312 218.695312 18.546875 217.132812 "/>
<path style=" stroke:none;fill-rule:nonzero;fill:rgb(86.27451%,5.098039%,8.235294%);fill-opacity:1;" d="M 23.566406 226.085938 L 24.851562 220.863281 C 25.125 219.847656 26.546875 219.777344 27.023438 220.726562 L 27.972656 222.558594 C 28.71875 224.117188 28.921875 225.8125 28.582031 227.507812 L 27.292969 232.730469 C 27.023438 233.746094 25.597656 233.816406 25.125 232.867188 L 24.175781 231.035156 C 23.359375 229.476562 23.15625 227.78125 23.566406 226.085938 "/>
<path style=" stroke:none;fill-rule:nonzero;fill:rgb(86.27451%,5.098039%,8.235294%);fill-opacity:1;" d="M 29.191406 234.765625 L 30.140625 229.476562 C 30.347656 228.457031 31.769531 228.253906 32.3125 229.136719 L 33.328125 230.898438 C 34.210938 232.390625 34.550781 234.085938 34.277344 235.78125 L 33.328125 241.070312 C 33.125 242.089844 31.703125 242.292969 31.160156 241.410156 L 30.140625 239.648438 C 29.261719 238.15625 28.921875 236.390625 29.191406 234.765625 "/>
<path style=" stroke:none;fill-rule:nonzero;fill:rgb(86.27451%,5.098039%,8.235294%);fill-opacity:1;" d="M 35.363281 242.96875 L 35.90625 237.613281 C 36.042969 236.597656 37.464844 236.257812 38.078125 237.136719 L 39.230469 238.832031 C 40.246094 240.257812 40.652344 241.953125 40.519531 243.648438 L 39.976562 249.003906 C 39.839844 250.023438 38.414062 250.363281 37.804688 249.480469 L 36.652344 247.785156 C 35.703125 246.359375 35.226562 244.664062 35.363281 242.96875 "/>
<path style=" stroke:none;fill-rule:nonzero;fill:rgb(86.27451%,5.098039%,8.235294%);fill-opacity:1;" d="M 42.144531 250.769531 L 42.347656 245.410156 C 42.417969 244.394531 43.773438 243.988281 44.449219 244.800781 L 45.738281 246.359375 C 46.824219 247.71875 47.367188 249.34375 47.296875 251.039062 L 47.09375 256.398438 C 47.09375 257.414062 45.671875 257.820312 44.992188 257.007812 L 43.703125 255.449219 C 42.6875 254.089844 42.144531 252.394531 42.144531 250.769531 "/>
<path style=" stroke:none;fill-rule:nonzero;fill:rgb(86.27451%,5.098039%,8.235294%);fill-opacity:1;" d="M 49.46875 258.023438 L 49.265625 252.667969 C 49.265625 251.648438 50.621094 251.109375 51.300781 251.921875 L 52.65625 253.414062 C 53.808594 254.703125 54.488281 256.328125 54.554688 257.957031 L 54.757812 263.3125 C 54.824219 264.332031 53.402344 264.875 52.722656 264.058594 L 51.367188 262.566406 C 50.214844 261.28125 49.535156 259.71875 49.46875 258.023438 "/>
<path style=" stroke:none;fill-rule:nonzero;fill:rgb(86.27451%,5.098039%,8.235294%);fill-opacity:1;" d="M 57.265625 264.738281 L 56.726562 259.378906 C 56.589844 258.363281 57.945312 257.753906 58.691406 258.5 L 60.183594 259.921875 C 61.472656 261.074219 62.21875 262.703125 62.421875 264.332031 L 62.964844 269.6875 C 63.097656 270.707031 61.742188 271.316406 60.996094 270.570312 L 59.503906 269.144531 C 58.214844 267.992188 57.402344 266.433594 57.265625 264.738281 "/>
<path style=" stroke:none;fill-rule:nonzero;fill:rgb(86.27451%,5.098039%,8.235294%);fill-opacity:1;" d="M 65.472656 270.910156 L 64.523438 265.621094 C 64.320312 264.601562 65.609375 263.925781 66.488281 264.601562 L 68.050781 265.890625 C 69.40625 266.976562 70.285156 268.46875 70.558594 270.164062 L 71.507812 275.453125 C 71.710938 276.46875 70.421875 277.148438 69.609375 276.46875 L 68.050781 275.179688 C 66.691406 274.097656 65.742188 272.605469 65.472656 270.910156 "/>
<path style=" stroke:none;fill-rule:nonzero;fill:rgb(86.27451%,5.098039%,8.235294%);fill-opacity:1;" d="M 74.152344 276.535156 L 72.863281 271.316406 C 72.59375 270.296875 73.882812 269.550781 74.695312 270.164062 L 76.390625 271.316406 C 77.8125 272.332031 78.832031 273.757812 79.238281 275.382812 L 80.527344 280.605469 C 80.796875 281.621094 79.507812 282.367188 78.695312 281.757812 L 77 280.605469 C 75.507812 279.589844 74.558594 278.164062 74.152344 276.535156 "/>
<path style=" stroke:none;fill-rule:nonzero;fill:rgb(86.27451%,5.098039%,8.235294%);fill-opacity:1;" d="M 83.171875 281.554688 L 81.542969 276.46875 C 81.203125 275.519531 82.425781 274.636719 83.308594 275.179688 L 85.070312 276.265625 C 86.5625 277.148438 87.648438 278.503906 88.1875 280.132812 L 89.816406 285.21875 C 90.15625 286.167969 88.933594 287.046875 88.054688 286.503906 L 86.289062 285.421875 C 84.730469 284.472656 83.644531 283.113281 83.171875 281.554688 "/>
<path style=" stroke:none;fill-rule:nonzero;fill:rgb(86.27451%,5.098039%,8.235294%);fill-opacity:1;" d="M 92.460938 285.828125 L 90.425781 280.878906 C 90.019531 279.925781 91.171875 278.976562 92.121094 279.453125 L 93.953125 280.402344 C 95.511719 281.214844 96.664062 282.503906 97.34375 284.0625 L 99.378906 289.015625 C 99.785156 289.964844 98.632812 290.914062 97.683594 290.4375 L 95.851562 289.488281 C 94.292969 288.742188 93.140625 287.453125 92.460938 285.828125 "/>
<path style=" stroke:none;fill-rule:nonzero;fill:rgb(86.27451%,5.098039%,8.235294%);fill-opacity:1;" d="M 102.089844 289.558594 L 99.71875 284.742188 C 99.242188 283.792969 100.328125 282.777344 101.277344 283.183594 L 103.175781 283.996094 C 104.804688 284.675781 106.023438 285.894531 106.769531 287.386719 L 109.144531 292.203125 C 109.617188 293.152344 108.53125 294.167969 107.582031 293.695312 L 105.683594 292.878906 C 104.125 292.269531 102.835938 291.046875 102.089844 289.558594 "/>
<path style=" stroke:none;fill-rule:nonzero;fill:rgb(86.27451%,5.098039%,8.235294%);fill-opacity:1;" d="M 111.992188 292.539062 L 109.277344 287.863281 C 108.738281 286.980469 109.753906 285.894531 110.769531 286.234375 L 112.667969 286.914062 C 114.296875 287.453125 115.652344 288.609375 116.535156 290.03125 L 119.246094 294.710938 C 119.789062 295.59375 118.773438 296.675781 117.753906 296.339844 L 115.855469 295.660156 C 114.160156 295.117188 112.804688 294.03125 111.992188 292.539062 "/>
<path style=" stroke:none;fill-rule:nonzero;fill:rgb(86.27451%,5.098039%,8.235294%);fill-opacity:1;" d="M 122.027344 294.847656 L 119.042969 290.4375 C 118.5 289.558594 119.382812 288.402344 120.398438 288.675781 L 122.367188 289.21875 C 124.0625 289.691406 125.484375 290.710938 126.433594 292.066406 L 129.417969 296.542969 C 130.03125 297.421875 129.078125 298.574219 128.0625 298.304688 L 126.097656 297.761719 C 124.332031 297.289062 122.910156 296.269531 122.027344 294.847656 "/>
<path style=" stroke:none;fill-rule:nonzero;fill:rgb(86.27451%,5.098039%,8.235294%);fill-opacity:1;" d="M 132.199219 296.472656 L 128.875 292.269531 C 128.265625 291.457031 129.078125 290.234375 130.097656 290.4375 L 132.0625 290.84375 C 133.757812 291.183594 135.25 292.066406 136.335938 293.421875 L 139.660156 297.625 C 140.269531 298.441406 139.457031 299.660156 138.4375 299.457031 L 136.472656 299.050781 C 134.707031 298.710938 133.214844 297.761719 132.199219 296.472656 "/>
<path style=" stroke:none;fill-rule:nonzero;fill:rgb(86.27451%,5.098039%,8.235294%);fill-opacity:1;" d="M 142.4375 297.355469 L 138.84375 293.355469 C 138.167969 292.609375 138.914062 291.320312 139.929688 291.457031 L 141.964844 291.726562 C 143.660156 291.929688 145.21875 292.742188 146.371094 294.03125 L 149.964844 298.035156 C 150.644531 298.78125 149.898438 300.066406 148.882812 299.933594 L 146.847656 299.660156 C 145.152344 299.390625 143.589844 298.574219 142.4375 297.355469 "/>
<path style=" stroke:none;fill-rule:nonzero;fill:rgb(86.27451%,5.098039%,8.235294%);fill-opacity:1;" d="M 152.746094 297.492188 L 148.882812 293.761719 C 148.136719 293.082031 148.746094 291.726562 149.832031 291.792969 L 151.863281 291.929688 C 153.628906 292 155.1875 292.742188 156.410156 293.898438 L 160.273438 297.625 C 161.019531 298.304688 160.410156 299.660156 159.324219 299.59375 L 157.289062 299.457031 C 155.527344 299.390625 153.96875 298.710938 152.746094 297.492188 "/>
<path style=" stroke:none;fill-rule:nonzero;fill:rgb(86.27451%,5.098039%,8.235294%);fill-opacity:1;" d="M 163.054688 296.949219 L 158.917969 293.488281 C 158.105469 292.8125 158.644531 291.457031 159.730469 291.457031 L 161.765625 291.457031 C 163.527344 291.457031 165.15625 292 166.445312 293.082031 L 170.582031 296.542969 C 171.394531 297.21875 170.851562 298.574219 169.765625 298.574219 L 167.734375 298.574219 C 165.96875 298.644531 164.34375 298.035156 163.054688 296.949219 "/>
<path style=" stroke:none;fill-rule:nonzero;fill:rgb(86.27451%,5.098039%,8.235294%);fill-opacity:1;" d="M 173.226562 295.726562 L 168.886719 292.609375 C 168.070312 292 168.480469 290.574219 169.5625 290.507812 L 171.597656 290.304688 C 173.292969 290.167969 174.988281 290.640625 176.34375 291.589844 L 180.683594 294.710938 C 181.5 295.320312 181.089844 296.675781 180.007812 296.8125 L 177.972656 297.015625 C 176.277344 297.152344 174.582031 296.675781 173.226562 295.726562 "/>
<path style=" stroke:none;fill-rule:nonzero;fill:rgb(86.27451%,5.098039%,8.235294%);fill-opacity:1;" d="M 183.328125 293.695312 L 178.785156 290.84375 C 177.90625 290.304688 178.242188 288.878906 179.328125 288.742188 L 181.363281 288.402344 C 183.058594 288.132812 184.820312 288.472656 186.246094 289.355469 L 190.789062 292.203125 C 191.671875 292.742188 191.332031 294.167969 190.246094 294.304688 L 188.210938 294.644531 C 186.515625 294.980469 184.820312 294.644531 183.328125 293.695312 "/>
<path style=" stroke:none;fill-rule:nonzero;fill:rgb(86.27451%,5.098039%,8.235294%);fill-opacity:1;" d="M 193.296875 291.046875 L 188.550781 288.539062 C 187.667969 288.066406 187.871094 286.640625 188.890625 286.371094 L 190.855469 285.894531 C 192.550781 285.488281 194.316406 285.757812 195.808594 286.503906 L 200.554688 289.015625 C 201.433594 289.488281 201.230469 290.914062 200.214844 291.183594 L 198.25 291.660156 C 196.554688 292.066406 194.789062 291.863281 193.296875 291.046875 "/>
<path style=" stroke:none;fill-rule:nonzero;fill:rgb(86.27451%,5.098039%,8.235294%);fill-opacity:1;" d="M 203.0625 287.660156 L 198.179688 285.488281 C 197.230469 285.082031 197.367188 283.589844 198.382812 283.316406 L 200.351562 282.707031 C 201.976562 282.234375 203.742188 282.300781 205.300781 282.980469 L 210.183594 285.148438 C 211.132812 285.554688 210.996094 287.046875 209.980469 287.320312 L 208.011719 287.929688 C 206.316406 288.472656 204.554688 288.335938 203.0625 287.660156 "/>
<path style=" stroke:none;fill-rule:nonzero;fill:rgb(86.27451%,5.098039%,8.235294%);fill-opacity:1;" d="M 212.554688 283.65625 L 207.539062 281.828125 C 206.589844 281.488281 206.589844 279.996094 207.605469 279.65625 L 209.503906 278.910156 C 211.132812 278.300781 212.894531 278.300781 214.457031 278.84375 L 219.472656 280.671875 C 220.421875 281.011719 220.421875 282.503906 219.40625 282.84375 L 217.507812 283.589844 C 215.878906 284.199219 214.117188 284.199219 212.554688 283.65625 "/>
<path style=" stroke:none;fill-rule:nonzero;fill:rgb(86.27451%,5.098039%,8.235294%);fill-opacity:1;" d="M 221.710938 278.976562 L 216.558594 277.488281 C 215.539062 277.214844 215.539062 275.722656 216.488281 275.316406 L 218.320312 274.433594 C 219.878906 273.6875 221.644531 273.554688 223.269531 274.027344 L 228.425781 275.519531 C 229.441406 275.792969 229.441406 277.28125 228.492188 277.691406 L 226.660156 278.570312 C 225.035156 279.316406 223.339844 279.453125 221.710938 278.976562 "/>
<path style=" stroke:none;fill-rule:nonzero;fill:rgb(86.27451%,5.098039%,8.235294%);fill-opacity:1;" d="M 230.527344 273.621094 L 225.304688 272.535156 C 224.289062 272.332031 224.152344 270.839844 225.101562 270.367188 L 226.863281 269.417969 C 228.355469 268.601562 230.121094 268.332031 231.746094 268.671875 L 236.96875 269.757812 C 237.984375 269.960938 238.121094 271.453125 237.238281 271.925781 L 235.476562 272.875 C 233.917969 273.757812 232.152344 273.960938 230.527344 273.621094 "/>
<path style=" stroke:none;fill-rule:nonzero;fill:rgb(86.27451%,5.098039%,8.235294%);fill-opacity:1;" d="M 238.933594 267.722656 L 233.578125 266.976562 C 232.5625 266.839844 232.289062 265.414062 233.171875 264.804688 L 234.867188 263.71875 C 236.289062 262.769531 238.054688 262.363281 239.679688 262.636719 L 244.96875 263.382812 C 245.988281 263.515625 246.257812 264.941406 245.378906 265.550781 L 243.683594 266.636719 C 242.324219 267.585938 240.628906 267.992188 238.933594 267.722656 "/>
<path style=" stroke:none;fill-rule:nonzero;fill:rgb(86.27451%,5.098039%,8.235294%);fill-opacity:1;" d="M 246.9375 261.28125 L 241.578125 260.871094 C 240.5625 260.804688 240.222656 259.378906 241.039062 258.769531 L 242.664062 257.550781 C 244.019531 256.53125 245.714844 255.988281 247.410156 256.125 L 252.769531 256.464844 C 253.785156 256.53125 254.191406 257.957031 253.3125 258.566406 L 251.683594 259.789062 C 250.328125 260.871094 248.632812 261.347656 246.9375 261.28125 "/>
<path style=" stroke:none;fill-rule:evenodd;fill:rgb(86.27451%,5.098039%,8.235294%);fill-opacity:1;" d="M 137.351562 31.734375 L 145.152344 26.109375 L 142.167969 16.816406 L 149.964844 22.582031 L 157.832031 16.816406 L 154.78125 25.972656 L 162.648438 31.667969 L 153.019531 31.667969 L 150.035156 40.890625 L 147.050781 31.734375 Z M 137.351562 31.734375 "/>
<path style=" stroke:none;fill-rule:evenodd;fill:rgb(86.27451%,5.098039%,8.235294%);fill-opacity:1;" d="M 93.070312 45.570312 L 98.15625 37.363281 L 91.785156 29.972656 L 101.140625 32.277344 L 106.226562 23.9375 L 106.972656 33.566406 L 116.398438 35.871094 L 107.515625 39.535156 L 108.261719 49.230469 L 102.023438 41.839844 Z M 93.070312 45.570312 "/>
<path style=" stroke:none;fill-rule:evenodd;fill:rgb(86.27451%,5.098039%,8.235294%);fill-opacity:1;" d="M 57.402344 75.339844 L 58.960938 65.777344 L 50.28125 61.371094 L 59.84375 59.945312 L 61.335938 50.316406 L 65.675781 58.929688 L 75.304688 57.367188 L 68.457031 64.21875 L 72.863281 72.828125 L 64.320312 68.421875 Z M 57.402344 75.339844 "/>
<path style=" stroke:none;fill-rule:evenodd;fill:rgb(86.27451%,5.098039%,8.235294%);fill-opacity:1;" d="M 35.90625 116.433594 L 33.667969 107.007812 L 23.972656 106.328125 L 32.246094 101.3125 L 29.9375 91.816406 L 37.261719 98.125 L 45.535156 93.039062 L 41.804688 101.921875 L 49.199219 108.226562 L 39.636719 107.414062 Z M 35.90625 116.433594 "/>
<path style=" stroke:none;fill-rule:evenodd;fill:rgb(86.27451%,5.098039%,8.235294%);fill-opacity:1;" d="M 31.769531 162.679688 L 26.074219 154.816406 L 16.851562 157.867188 L 22.546875 150.066406 L 16.851562 142.203125 L 26.007812 145.253906 L 31.703125 137.320312 L 31.632812 147.015625 L 40.925781 150 L 31.703125 152.914062 Z M 31.769531 162.679688 "/>
<path style=" stroke:none;fill-rule:evenodd;fill:rgb(86.27451%,5.098039%,8.235294%);fill-opacity:1;" d="M 45.605469 206.960938 L 37.398438 201.875 L 30.007812 208.183594 L 32.3125 198.824219 L 23.972656 193.738281 L 33.601562 193.0625 L 35.839844 183.566406 L 39.5 192.519531 L 49.199219 191.703125 L 41.875 197.941406 Z M 45.605469 206.960938 "/>
<path style=" stroke:none;fill-rule:evenodd;fill:rgb(86.27451%,5.098039%,8.235294%);fill-opacity:1;" d="M 75.304688 242.5625 L 65.8125 241.003906 L 61.402344 249.683594 L 59.910156 240.191406 L 50.351562 238.628906 L 58.960938 234.289062 L 57.402344 224.730469 L 64.183594 231.578125 L 72.863281 227.101562 L 68.457031 235.714844 Z M 75.304688 242.5625 "/>
<path style=" stroke:none;fill-rule:evenodd;fill:rgb(86.27451%,5.098039%,8.235294%);fill-opacity:1;" d="M 116.46875 264.128906 L 107.042969 266.296875 L 106.296875 275.996094 L 101.277344 267.789062 L 91.851562 270.027344 L 98.15625 262.769531 L 93.003906 254.429688 L 101.957031 258.226562 L 108.261719 250.769531 L 107.449219 260.398438 Z M 116.46875 264.128906 "/>
<path style=" stroke:none;fill-rule:evenodd;fill:rgb(86.27451%,5.098039%,8.235294%);fill-opacity:1;" d="M 162.648438 268.265625 L 154.847656 273.890625 L 157.832031 283.183594 L 150.101562 277.417969 L 142.234375 283.183594 L 145.21875 274.027344 L 137.351562 268.332031 L 146.980469 268.332031 L 149.964844 259.109375 L 152.949219 268.265625 Z M 162.648438 268.265625 "/>
<path style=" stroke:none;fill-rule:evenodd;fill:rgb(86.27451%,5.098039%,8.235294%);fill-opacity:1;" d="M 206.929688 254.429688 L 201.84375 262.636719 L 208.214844 270.027344 L 198.859375 267.722656 L 193.773438 275.996094 L 193.027344 266.367188 L 183.601562 264.128906 L 192.550781 260.464844 L 191.738281 250.769531 L 197.976562 258.160156 Z M 206.929688 254.429688 "/>
<path style=" stroke:none;fill-rule:evenodd;fill:rgb(86.27451%,5.098039%,8.235294%);fill-opacity:1;" d="M 242.597656 224.660156 L 241.039062 234.222656 L 249.71875 238.628906 L 240.15625 240.054688 L 238.664062 249.683594 L 234.324219 241.070312 L 224.695312 242.632812 L 231.542969 235.78125 L 227.136719 227.171875 L 235.679688 231.578125 Z M 242.597656 224.660156 "/>
<path style=" stroke:none;fill-rule:evenodd;fill:rgb(86.27451%,5.098039%,8.235294%);fill-opacity:1;" d="M 264.09375 183.566406 L 266.332031 192.992188 L 276.027344 193.671875 L 267.753906 198.6875 L 270.0625 208.183594 L 262.738281 201.875 L 254.464844 206.960938 L 258.195312 198.078125 L 250.800781 191.773438 L 260.433594 192.585938 Z M 264.09375 183.566406 "/>
<path style=" stroke:none;fill-rule:evenodd;fill:rgb(86.27451%,5.098039%,8.235294%);fill-opacity:1;" d="M 268.296875 137.320312 L 273.925781 145.183594 L 283.148438 142.132812 L 277.453125 149.933594 L 283.214844 157.796875 L 273.992188 154.746094 L 268.296875 162.679688 L 268.367188 152.984375 L 259.074219 150 L 268.296875 147.085938 Z M 268.296875 137.320312 "/>
<path style=" stroke:none;fill-rule:evenodd;fill:rgb(86.27451%,5.098039%,8.235294%);fill-opacity:1;" d="M 254.394531 93.039062 L 262.601562 98.125 L 269.992188 91.816406 L 267.6875 101.175781 L 276.027344 106.261719 L 266.398438 106.9375 L 264.160156 116.433594 L 260.5 107.480469 L 250.800781 108.296875 L 258.195312 102.058594 Z M 254.394531 93.039062 "/>
<path style=" stroke:none;fill-rule:evenodd;fill:rgb(86.27451%,5.098039%,8.235294%);fill-opacity:1;" d="M 224.695312 57.4375 L 234.1875 58.996094 L 238.597656 50.316406 L 240.089844 59.808594 L 249.71875 61.300781 L 241.039062 65.710938 L 242.597656 75.269531 L 235.816406 68.421875 L 227.136719 72.898438 L 231.613281 64.285156 Z M 224.695312 57.4375 "/>
<path style=" stroke:none;fill-rule:evenodd;fill:rgb(86.27451%,5.098039%,8.235294%);fill-opacity:1;" d="M 183.53125 35.871094 L 192.957031 33.703125 L 193.703125 24.003906 L 198.722656 32.210938 L 208.148438 29.90625 L 201.84375 37.230469 L 206.996094 45.570312 L 198.042969 41.773438 L 191.738281 49.230469 L 192.550781 39.601562 Z M 183.53125 35.871094 "/>
<path style=" stroke:none;fill-rule:nonzero;fill:rgb(86.27451%,5.098039%,8.235294%);fill-opacity:1;" d="M 150.035156 226.355469 C 107.921875 226.355469 73.675781 192.109375 73.675781 150 C 73.675781 107.890625 107.921875 73.644531 150.035156 73.644531 C 192.144531 73.644531 226.390625 107.890625 226.390625 150 C 226.390625 192.109375 192.078125 226.355469 150.035156 226.355469 M 150.035156 75.882812 C 109.144531 75.882812 75.914062 109.109375 75.914062 150 C 75.914062 190.890625 109.144531 224.117188 150.035156 224.117188 C 190.925781 224.117188 224.152344 190.890625 224.152344 150 C 224.152344 109.109375 190.855469 75.882812 150.035156 75.882812 "/>
<path style=" stroke:none;fill-rule:nonzero;fill:rgb(86.27451%,5.098039%,8.235294%);fill-opacity:1;" d="M 150.035156 252.804688 C 93.34375 252.804688 47.230469 206.691406 47.230469 150 C 47.230469 93.308594 93.34375 47.195312 150.035156 47.195312 C 206.726562 47.195312 252.835938 93.308594 252.835938 150 C 252.835938 206.691406 206.726562 252.804688 150.035156 252.804688 M 150.035156 49.503906 C 94.5625 49.503906 49.535156 94.597656 49.535156 150 C 49.535156 205.402344 94.632812 250.496094 150.035156 250.496094 C 205.4375 250.496094 250.53125 205.402344 250.53125 150 C 250.53125 94.597656 205.4375 49.503906 150.035156 49.503906 "/>
<path style=" stroke:none;fill-rule:nonzero;fill:rgb(86.27451%,5.098039%,8.235294%);fill-opacity:1;" d="M 127.316406 238.222656 L 130.367188 239.035156 L 129.757812 241.34375 L 121.078125 238.96875 L 121.6875 236.664062 L 124.808594 237.476562 L 127.453125 227.644531 L 130.03125 228.390625 Z M 127.316406 238.222656 "/>
<path style=" stroke:none;fill-rule:nonzero;fill:rgb(86.27451%,5.098039%,8.235294%);fill-opacity:1;" d="M 114.296875 236.390625 L 117.214844 229.746094 C 118.09375 227.78125 117.824219 226.425781 116.601562 225.882812 C 115.3125 225.339844 114.230469 225.949219 113.347656 227.984375 L 110.433594 234.628906 L 107.992188 233.542969 L 110.839844 227.101562 C 112.398438 223.574219 114.839844 222.625 117.621094 223.847656 C 120.332031 225.066406 121.214844 227.375 119.585938 231.035156 L 116.738281 237.476562 Z M 110.839844 237.070312 C 110.566406 237.75 109.890625 238.019531 109.210938 237.75 C 108.601562 237.476562 108.398438 236.800781 108.667969 236.121094 C 108.941406 235.511719 109.617188 235.171875 110.226562 235.441406 C 110.90625 235.714844 111.175781 236.390625 110.839844 237.070312 M 114.160156 238.496094 C 113.890625 239.171875 113.144531 239.445312 112.535156 239.171875 C 111.921875 238.902344 111.71875 238.222656 111.992188 237.546875 C 112.261719 236.933594 112.941406 236.597656 113.550781 236.867188 C 114.230469 237.136719 114.433594 237.882812 114.160156 238.496094 "/>
<path style=" stroke:none;fill-rule:nonzero;fill:rgb(86.27451%,5.098039%,8.235294%);fill-opacity:1;" d="M 103.039062 230.695312 C 102.226562 230.355469 101.140625 229.746094 99.921875 229 C 98.429688 228.050781 97.617188 227.171875 97.277344 226.152344 C 97.003906 225.269531 97.140625 224.320312 97.820312 223.371094 C 98.699219 222.015625 100.191406 221.675781 101.210938 221.878906 L 101.210938 221.8125 C 100.734375 221.066406 100.800781 220.117188 101.140625 218.964844 C 101.617188 217.539062 102.160156 215.980469 102.226562 215.4375 L 104.53125 216.929688 C 104.53125 217.335938 104.191406 218.355469 103.652344 219.847656 C 103.039062 221.339844 103.242188 221.949219 104.125 222.558594 L 104.804688 222.964844 L 107.449219 218.828125 L 109.6875 220.253906 Z M 103.785156 224.730469 L 102.90625 224.1875 C 101.820312 223.441406 100.734375 223.644531 100.125 224.59375 C 99.515625 225.542969 99.785156 226.425781 100.800781 227.101562 C 101.34375 227.441406 101.683594 227.578125 101.886719 227.644531 Z M 103.785156 224.730469 "/>
<path style=" stroke:none;fill-rule:nonzero;fill:rgb(86.27451%,5.098039%,8.235294%);fill-opacity:1;" d="M 91.648438 223.035156 L 89.679688 221.339844 L 93.34375 217.132812 L 93.273438 217.066406 C 92.734375 217.269531 92.257812 217.40625 91.785156 217.609375 L 87.035156 219.03125 L 84.59375 216.929688 L 91.039062 215.4375 L 92.734375 207.300781 L 95.039062 209.335938 L 93.613281 215.304688 L 95.242188 214.964844 L 97.953125 211.84375 L 99.921875 213.539062 Z M 91.648438 223.035156 "/>
<path style=" stroke:none;fill-rule:nonzero;fill:rgb(86.27451%,5.098039%,8.235294%);fill-opacity:1;" d="M 80.050781 214.894531 C 79.507812 215.371094 78.761719 215.371094 78.289062 214.828125 C 77.882812 214.355469 77.949219 213.609375 78.492188 213.132812 C 78.96875 212.660156 79.78125 212.660156 80.1875 213.132812 C 80.59375 213.609375 80.527344 214.421875 80.050781 214.894531 M 79.847656 211.640625 L 89.140625 203.164062 L 90.902344 205.132812 L 81.613281 213.609375 Z M 79.847656 211.640625 "/>
<path style=" stroke:none;fill-rule:nonzero;fill:rgb(86.27451%,5.098039%,8.235294%);fill-opacity:1;" d="M 85.070312 198.214844 L 80.867188 201.199219 L 77 208.523438 L 75.304688 206.148438 L 77.066406 203.4375 C 77.609375 202.621094 78.019531 202.011719 78.492188 201.265625 C 77.679688 201.535156 76.933594 201.742188 76.050781 201.945312 L 72.933594 202.757812 L 71.167969 200.316406 L 79.375 199.164062 L 83.644531 196.113281 Z M 85.070312 198.214844 "/>
<path style=" stroke:none;fill-rule:nonzero;fill:rgb(86.27451%,5.098039%,8.235294%);fill-opacity:1;" d="M 71.980469 186.753906 L 73.949219 190.621094 L 76.59375 189.195312 L 74.355469 184.921875 L 76.457031 183.839844 L 79.917969 190.484375 L 68.726562 196.316406 L 65.40625 189.941406 L 67.4375 188.855469 L 69.609375 192.855469 L 71.914062 191.636719 L 69.878906 187.839844 Z M 71.980469 186.753906 "/>
<path style=" stroke:none;fill-rule:nonzero;fill:rgb(86.27451%,5.098039%,8.235294%);fill-opacity:1;" d="M 70.761719 168.511719 C 71.167969 168.917969 71.710938 169.867188 72.117188 171.226562 C 73.269531 175.089844 71.238281 177.871094 67.777344 178.886719 C 63.640625 180.109375 60.589844 178.007812 59.574219 174.617188 C 59.164062 173.328125 59.164062 172.242188 59.300781 171.699219 L 61.605469 171.5625 C 61.539062 172.175781 61.539062 172.921875 61.8125 173.800781 C 62.421875 175.835938 64.183594 176.988281 66.828125 176.242188 C 69.269531 175.566406 70.355469 173.734375 69.746094 171.496094 C 69.542969 170.75 69.066406 169.9375 68.726562 169.53125 Z M 70.761719 168.511719 "/>
<path style=" stroke:none;fill-rule:nonzero;fill:rgb(86.27451%,5.098039%,8.235294%);fill-opacity:1;" d="M 57.675781 164.445312 L 64.863281 163.496094 C 67.03125 163.222656 67.980469 162.273438 67.847656 160.984375 C 67.640625 159.628906 66.488281 159.019531 64.320312 159.289062 L 57.132812 160.238281 L 56.792969 157.59375 L 63.777344 156.644531 C 67.640625 156.101562 69.675781 157.664062 70.082031 160.714844 C 70.492188 163.628906 69 165.597656 64.996094 166.140625 L 58.011719 167.089844 Z M 57.675781 164.445312 "/>
<path style=" stroke:none;fill-rule:nonzero;fill:rgb(86.27451%,5.098039%,8.235294%);fill-opacity:1;" d="M 64.523438 142.203125 C 63.03125 142.203125 61.199219 142.132812 59.371094 142.066406 L 59.371094 142.132812 C 60.929688 142.539062 62.761719 143.152344 64.183594 143.625 L 69 145.253906 L 68.929688 147.289062 L 63.980469 148.304688 C 62.488281 148.644531 60.65625 148.914062 59.03125 149.117188 L 59.03125 149.1875 C 60.726562 149.320312 62.691406 149.457031 64.25 149.59375 L 69 150 L 68.863281 152.441406 L 56.316406 151.289062 L 56.453125 147.761719 L 60.726562 146.8125 C 62.21875 146.542969 63.777344 146.203125 65.269531 146 L 65.269531 145.929688 C 63.84375 145.523438 62.21875 145.050781 60.792969 144.644531 L 56.65625 143.21875 L 56.792969 139.761719 L 69.40625 139.691406 L 69.269531 142.269531 Z M 64.523438 142.203125 "/>
<path style=" stroke:none;fill-rule:nonzero;fill:rgb(86.27451%,5.098039%,8.235294%);fill-opacity:1;" d="M 58.421875 130.878906 L 63.097656 131.960938 L 64.117188 127.757812 L 59.371094 126.671875 L 59.980469 124.097656 L 72.253906 126.875 L 71.644531 129.453125 L 66.558594 128.300781 L 65.539062 132.574219 L 70.695312 133.726562 L 70.082031 136.300781 L 57.808594 133.453125 Z M 58.421875 130.878906 "/>
<path style=" stroke:none;fill-rule:nonzero;fill:rgb(86.27451%,5.098039%,8.235294%);fill-opacity:1;" d="M 62.828125 116.09375 L 69.542969 118.875 C 71.574219 119.6875 72.863281 119.417969 73.339844 118.195312 C 73.882812 116.90625 73.203125 115.824219 71.167969 114.941406 L 64.457031 112.160156 L 65.472656 109.71875 L 71.980469 112.433594 C 75.578125 113.925781 76.59375 116.296875 75.371094 119.144531 C 74.21875 121.859375 71.980469 122.808594 68.253906 121.246094 L 61.742188 118.535156 Z M 62.828125 116.09375 "/>
<path style=" stroke:none;fill-rule:nonzero;fill:rgb(86.27451%,5.098039%,8.235294%);fill-opacity:1;" d="M 68.183594 104.769531 C 68.523438 103.957031 69.066406 102.804688 69.8125 101.648438 C 70.695312 100.160156 71.574219 99.277344 72.59375 98.9375 C 73.472656 98.667969 74.421875 98.800781 75.371094 99.414062 C 76.730469 100.226562 77.136719 101.71875 76.933594 102.804688 L 77 102.804688 C 77.746094 102.261719 78.695312 102.328125 79.847656 102.667969 C 81.273438 103.074219 82.832031 103.617188 83.375 103.683594 L 81.949219 105.988281 C 81.542969 105.988281 80.527344 105.652344 79.035156 105.175781 C 77.542969 104.632812 76.933594 104.835938 76.324219 105.71875 L 75.914062 106.398438 L 80.121094 108.972656 L 78.761719 111.210938 Z M 74.21875 105.3125 L 74.761719 104.429688 C 75.441406 103.277344 75.238281 102.261719 74.289062 101.71875 C 73.269531 101.109375 72.457031 101.445312 71.777344 102.464844 C 71.441406 103.007812 71.304688 103.34375 71.238281 103.546875 Z M 74.21875 105.3125 "/>
<path style=" stroke:none;fill-rule:nonzero;fill:rgb(86.27451%,5.098039%,8.235294%);fill-opacity:1;" d="M 73.949219 92.15625 C 73.40625 91.683594 73.269531 90.9375 73.675781 90.394531 C 74.085938 89.851562 74.832031 89.851562 75.441406 90.257812 C 75.984375 90.664062 76.117188 91.410156 75.710938 91.953125 C 75.304688 92.496094 74.492188 92.5625 73.949219 92.15625 M 77.066406 91.34375 L 86.96875 99.074219 L 85.339844 101.175781 L 75.441406 93.445312 Z M 77.066406 91.34375 "/>
<path style=" stroke:none;fill-rule:nonzero;fill:rgb(86.27451%,5.098039%,8.235294%);fill-opacity:1;" d="M 91.242188 94.257812 L 87.578125 90.664062 L 79.644531 88.085938 L 81.746094 85.917969 L 84.730469 87.207031 C 85.613281 87.613281 86.289062 87.882812 87.105469 88.222656 C 86.699219 87.476562 86.425781 86.800781 86.019531 85.917969 L 84.664062 82.933594 L 86.765625 80.832031 L 89.34375 88.699219 L 93.070312 92.359375 Z M 91.242188 94.257812 "/>
<path style=" stroke:none;fill-rule:nonzero;fill:rgb(86.27451%,5.098039%,8.235294%);fill-opacity:1;" d="M 100.191406 79.40625 L 96.800781 81.984375 L 98.632812 84.359375 L 102.429688 81.441406 L 103.855469 83.273438 L 97.953125 87.816406 L 90.222656 77.914062 L 95.988281 73.507812 L 97.410156 75.339844 L 93.816406 78.121094 L 95.378906 80.152344 L 98.769531 77.578125 Z M 100.191406 79.40625 "/>
<path style=" stroke:none;fill-rule:nonzero;fill:rgb(86.27451%,5.098039%,8.235294%);fill-opacity:1;" d="M 103.515625 71.472656 L 100.800781 73.101562 L 99.582031 71 L 107.378906 66.523438 L 108.601562 68.558594 L 105.820312 70.183594 L 110.90625 79 L 108.601562 80.355469 Z M 103.515625 71.472656 "/>
<path style=" stroke:none;fill-rule:nonzero;fill:rgb(86.27451%,5.098039%,8.235294%);fill-opacity:1;" d="M 110.566406 62.863281 C 110.296875 62.183594 110.566406 61.4375 111.175781 61.167969 C 111.789062 60.894531 112.464844 61.234375 112.738281 61.84375 C 113.007812 62.453125 112.804688 63.199219 112.195312 63.472656 C 111.585938 63.8125 110.839844 63.472656 110.566406 62.863281 M 113.6875 63.675781 L 118.703125 75.203125 L 116.261719 76.289062 L 111.246094 64.761719 Z M 113.6875 63.675781 "/>
<path style=" stroke:none;fill-rule:nonzero;fill:rgb(86.27451%,5.098039%,8.235294%);fill-opacity:1;" d="M 126.367188 61.84375 L 123.316406 62.660156 L 122.707031 60.285156 L 131.453125 58.113281 L 131.996094 60.421875 L 128.945312 61.234375 L 131.386719 71.066406 L 128.808594 71.746094 Z M 126.367188 61.84375 "/>
<path style=" stroke:none;fill-rule:nonzero;fill:rgb(86.27451%,5.098039%,8.235294%);fill-opacity:1;" d="M 138.710938 66.457031 L 138.234375 69.777344 L 135.523438 70.050781 L 137.625 57.164062 L 141.082031 56.757812 L 146.101562 68.828125 L 143.253906 69.167969 L 141.964844 66.046875 Z M 141.421875 64.015625 L 140.40625 61.4375 C 140.132812 60.691406 139.792969 59.808594 139.523438 59.0625 C 139.457031 59.808594 139.386719 60.757812 139.25 61.503906 L 138.84375 64.21875 Z M 141.421875 64.015625 "/>
<path style=" stroke:none;fill-rule:nonzero;fill:rgb(86.27451%,5.098039%,8.235294%);fill-opacity:1;" d="M 149.492188 56.417969 C 150.371094 56.285156 151.59375 56.214844 153.019531 56.285156 C 154.78125 56.351562 155.933594 56.691406 156.746094 57.4375 C 157.425781 58.046875 157.765625 58.929688 157.695312 60.082031 C 157.628906 61.707031 156.542969 62.726562 155.527344 63.132812 L 155.527344 63.199219 C 156.339844 63.609375 156.746094 64.421875 157.019531 65.574219 C 157.359375 67 157.628906 68.695312 157.832031 69.167969 L 155.121094 69.101562 C 154.917969 68.761719 154.714844 67.675781 154.441406 66.117188 C 154.171875 64.558594 153.695312 64.082031 152.609375 64.015625 L 151.796875 64.015625 L 151.59375 68.964844 L 148.949219 68.898438 Z M 151.933594 61.980469 L 152.949219 62.046875 C 154.238281 62.117188 155.050781 61.4375 155.121094 60.285156 C 155.1875 59.132812 154.441406 58.523438 153.222656 58.453125 C 152.609375 58.453125 152.203125 58.453125 152 58.523438 Z M 151.933594 61.980469 "/>
<g clip-path="url(#clip9)" clip-rule="nonzero">
<g clip-path="url(#clip10)" clip-rule="nonzero">
<path style=" stroke:none;fill-rule:nonzero;fill:rgb(86.27451%,5.098039%,8.235294%);fill-opacity:1;" d="M 160.890625 69.621094 L 162.785156 57.148438 L 165.398438 57.546875 L 163.503906 70.015625 Z M 160.890625 69.621094 "/>
</g>
</g>
<path style=" stroke:none;fill-rule:nonzero;fill:rgb(86.27451%,5.098039%,8.235294%);fill-opacity:1;" d="M 178.175781 68.761719 C 178.582031 67.269531 179.058594 65.507812 179.53125 63.742188 L 179.464844 63.742188 C 178.652344 65.167969 177.703125 66.726562 176.820312 68.015625 L 174.039062 72.289062 L 172.074219 71.675781 L 172.277344 66.660156 C 172.34375 65.097656 172.480469 63.269531 172.683594 61.640625 C 172.140625 63.269531 171.53125 65.097656 170.988281 66.589844 L 169.429688 71.132812 L 167.054688 70.457031 L 171.394531 58.589844 L 174.785156 59.605469 L 174.648438 63.945312 C 174.582031 65.4375 174.445312 67.066406 174.3125 68.558594 L 174.378906 68.558594 C 175.125 67.269531 176.007812 65.777344 176.75 64.558594 L 179.125 60.894531 L 182.449219 61.914062 L 179.464844 74.1875 L 176.957031 73.441406 Z M 178.175781 68.761719 "/>
<path style=" stroke:none;fill-rule:nonzero;fill:rgb(86.27451%,5.098039%,8.235294%);fill-opacity:1;" d="M 189.09375 78.933594 L 192.144531 66.117188 L 194.652344 67.539062 L 193.230469 72.898438 C 192.824219 74.390625 192.417969 75.8125 191.875 77.304688 L 191.941406 77.304688 C 192.957031 76.152344 194.042969 75 195.0625 73.984375 L 199.0625 70.050781 L 201.503906 71.472656 L 191.804688 80.425781 Z M 189.09375 78.933594 "/>
<path style=" stroke:none;fill-rule:nonzero;fill:rgb(86.27451%,5.098039%,8.235294%);fill-opacity:1;" d="M 206.113281 84.222656 L 202.722656 81.511719 L 200.894531 83.882812 L 204.621094 86.867188 L 203.199219 88.699219 L 197.367188 84.085938 L 205.097656 74.1875 L 210.792969 78.660156 L 209.371094 80.492188 L 205.773438 77.644531 L 204.148438 79.746094 L 207.539062 82.390625 Z M 206.113281 84.222656 "/>
<path style=" stroke:none;fill-rule:nonzero;fill:rgb(86.27451%,5.098039%,8.235294%);fill-opacity:1;" d="M 220.761719 98.191406 C 217.574219 100.835938 214.183594 100.632812 212.015625 98.054688 C 209.777344 95.410156 210.65625 92.019531 213.371094 89.714844 C 216.285156 87.273438 219.878906 87.207031 222.050781 89.851562 C 224.355469 92.5625 223.40625 95.953125 220.761719 98.191406 M 215.203125 91.816406 C 213.300781 93.378906 212.691406 95.34375 213.84375 96.699219 C 214.996094 98.054688 217.03125 97.648438 218.929688 96.089844 C 220.695312 94.664062 221.507812 92.632812 220.355469 91.207031 C 219.132812 89.851562 217.03125 90.191406 215.203125 91.816406 "/>
<path style=" stroke:none;fill-rule:nonzero;fill:rgb(86.27451%,5.098039%,8.235294%);fill-opacity:1;" d="M 228.222656 98.597656 C 228.761719 99.277344 229.507812 100.292969 230.253906 101.515625 C 231.136719 103.007812 231.542969 104.226562 231.339844 105.242188 C 231.203125 106.125 230.59375 106.9375 229.644531 107.550781 C 228.289062 108.363281 226.796875 108.023438 225.914062 107.347656 L 225.847656 107.347656 C 225.984375 108.226562 225.441406 109.042969 224.628906 109.921875 C 223.609375 110.941406 222.390625 112.09375 222.050781 112.566406 L 220.625 110.261719 C 220.828125 109.921875 221.574219 109.175781 222.726562 108.023438 C 223.882812 106.9375 224.015625 106.328125 223.472656 105.378906 L 223.066406 104.703125 L 218.796875 107.210938 L 217.4375 104.972656 Z M 224.898438 103.617188 L 225.441406 104.5 C 226.117188 105.652344 227.136719 105.921875 228.085938 105.378906 C 229.101562 104.769531 229.171875 103.886719 228.628906 102.804688 C 228.289062 102.261719 228.085938 101.988281 227.949219 101.855469 Z M 224.898438 103.617188 "/>
<path style=" stroke:none;fill-rule:nonzero;fill:rgb(86.27451%,5.098039%,8.235294%);fill-opacity:1;" d="M 231.476562 122.605469 C 232.898438 121.992188 234.527344 121.316406 236.289062 120.636719 L 236.289062 120.570312 C 234.664062 120.773438 232.832031 120.976562 231.273438 121.113281 L 226.1875 121.519531 L 225.441406 119.621094 L 229.507812 116.703125 C 230.730469 115.824219 232.289062 114.804688 233.714844 113.992188 C 232.085938 114.535156 230.253906 115.210938 228.761719 115.6875 L 224.21875 117.179688 L 223.339844 114.875 L 235.339844 111.074219 L 236.628906 114.398438 L 233.105469 116.976562 C 231.882812 117.855469 230.527344 118.738281 229.238281 119.484375 L 229.238281 119.550781 C 230.730469 119.347656 232.425781 119.144531 233.847656 118.941406 L 238.1875 118.601562 L 239.410156 121.859375 L 227.882812 126.945312 L 226.933594 124.503906 Z M 231.476562 122.605469 "/>
<path style=" stroke:none;fill-rule:nonzero;fill:rgb(86.27451%,5.098039%,8.235294%);fill-opacity:1;" d="M 232.425781 132.367188 L 229.101562 132.164062 L 228.558594 129.453125 L 241.578125 130.605469 L 242.257812 133.996094 L 230.59375 139.894531 L 230.050781 137.117188 L 233.035156 135.625 Z M 235.070312 134.878906 L 237.578125 133.65625 C 238.257812 133.316406 239.140625 132.910156 239.882812 132.640625 C 239.140625 132.640625 238.121094 132.640625 237.375 132.574219 L 234.59375 132.367188 Z M 235.070312 134.878906 "/>
<path style=" stroke:none;fill-rule:nonzero;fill:rgb(86.27451%,5.098039%,8.235294%);fill-opacity:1;" d="M 230.867188 142.742188 L 243.480469 142.40625 L 243.546875 145.523438 L 239.003906 148.101562 C 237.714844 148.847656 236.15625 149.59375 234.730469 150.136719 L 234.730469 150.203125 C 236.359375 150 238.054688 149.863281 239.953125 149.796875 L 243.613281 149.660156 L 243.683594 152.101562 L 231.136719 152.441406 L 231.070312 149.660156 L 235.882812 147.015625 C 237.238281 146.269531 238.800781 145.457031 240.292969 144.847656 L 240.292969 144.777344 C 238.664062 144.914062 236.832031 144.980469 234.796875 145.050781 L 231 145.183594 Z M 230.867188 142.742188 "/>
<path style=" stroke:none;fill-rule:nonzero;fill:rgb(86.27451%,5.098039%,8.235294%);fill-opacity:1;" d="M 242.664062 163.019531 C 242.664062 163.699219 242.53125 165.121094 242.324219 166.410156 C 242.054688 167.96875 241.714844 168.917969 240.96875 169.664062 C 240.359375 170.410156 239.410156 170.816406 238.257812 170.613281 C 237.171875 170.410156 236.222656 169.597656 235.953125 168.242188 L 235.882812 168.242188 C 235.273438 169.460938 233.984375 170.277344 232.425781 169.9375 C 231.273438 169.734375 230.527344 169.054688 230.050781 168.242188 C 229.507812 167.292969 229.375 165.800781 229.78125 163.496094 C 229.984375 162.207031 230.253906 161.257812 230.457031 160.714844 Z M 231.949219 163.699219 C 231.882812 163.96875 231.816406 164.242188 231.746094 164.714844 C 231.542969 165.867188 231.816406 167.019531 233.105469 167.292969 C 234.324219 167.496094 235.070312 166.546875 235.273438 165.257812 L 235.410156 164.375 Z M 237.445312 164.714844 L 237.308594 165.597656 C 237.035156 166.953125 237.511719 167.835938 238.460938 167.96875 C 239.410156 168.171875 240.019531 167.5625 240.222656 166.410156 C 240.359375 165.867188 240.359375 165.527344 240.359375 165.257812 Z M 237.445312 164.714844 "/>
<path style=" stroke:none;fill-rule:nonzero;fill:rgb(86.27451%,5.098039%,8.235294%);fill-opacity:1;" d="M 230.1875 175.835938 L 227.40625 174.003906 L 228.289062 171.429688 L 239.003906 178.957031 L 237.851562 182.210938 L 224.761719 181.464844 L 225.710938 178.753906 L 229.035156 178.957031 Z M 231.273438 179.363281 L 234.054688 179.566406 C 234.796875 179.632812 235.75 179.703125 236.5625 179.835938 C 235.882812 179.429688 235.070312 178.957031 234.460938 178.546875 L 232.152344 176.988281 Z M 231.273438 179.363281 "/>
<path style=" stroke:none;fill-rule:nonzero;fill:rgb(86.27451%,5.098039%,8.235294%);fill-opacity:1;" d="M 234.730469 189.941406 L 233.511719 192.246094 L 228.558594 189.671875 L 228.558594 189.738281 C 228.898438 190.210938 229.101562 190.621094 229.375 191.09375 L 231.816406 195.367188 L 230.324219 198.214844 L 227.40625 192.316406 L 219.132812 192.519531 L 220.558594 189.804688 L 226.730469 189.804688 L 226.050781 188.3125 L 222.390625 186.414062 L 223.609375 184.109375 Z M 234.730469 189.941406 "/>
<path style=" stroke:none;fill-rule:nonzero;fill:rgb(86.27451%,5.098039%,8.235294%);fill-opacity:1;" d="M 218.386719 199.097656 L 216.285156 196.519531 L 217.914062 194.347656 L 225.78125 204.792969 L 223.675781 207.574219 L 211.472656 202.894531 L 213.167969 200.585938 L 216.285156 201.808594 Z M 218.320312 202.757812 L 220.898438 203.773438 C 221.644531 204.046875 222.457031 204.453125 223.203125 204.792969 C 222.726562 204.183594 222.050781 203.503906 221.574219 202.894531 L 219.878906 200.722656 Z M 218.320312 202.757812 "/>
<path style=" stroke:none;fill-rule:nonzero;fill:rgb(86.27451%,5.098039%,8.235294%);fill-opacity:1;" d="M 209.640625 204.925781 L 218.386719 214.015625 L 216.152344 216.183594 L 211.199219 214.558594 C 209.777344 214.082031 208.214844 213.402344 206.859375 212.792969 L 206.792969 212.863281 C 208.082031 213.945312 209.300781 215.097656 210.589844 216.457031 L 213.167969 219.101562 L 211.402344 220.796875 L 202.65625 211.707031 L 204.691406 209.742188 L 209.84375 211.503906 C 211.269531 211.980469 212.964844 212.660156 214.386719 213.269531 L 214.386719 213.199219 C 213.167969 212.046875 211.945312 210.828125 210.523438 209.335938 L 207.878906 206.621094 Z M 209.640625 204.925781 "/>
<path style=" stroke:none;fill-rule:nonzero;fill:rgb(86.27451%,5.098039%,8.235294%);fill-opacity:1;" d="M 206.996094 224.253906 L 204.824219 225.746094 L 198.859375 217.472656 L 195.0625 220.183594 L 193.703125 218.21875 L 199.671875 214.015625 Z M 206.996094 224.253906 "/>
<g clip-path="url(#clip11)" clip-rule="nonzero">
<g clip-path="url(#clip12)" clip-rule="nonzero">
<path style=" stroke:none;fill-rule:nonzero;fill:rgb(86.27451%,5.098039%,8.235294%);fill-opacity:1;" d="M 188.835938 221.035156 L 191.140625 219.730469 L 197.320312 230.648438 L 195.019531 231.949219 Z M 188.835938 221.035156 "/>
</g>
</g>
<path style=" stroke:none;fill-rule:nonzero;fill:rgb(86.27451%,5.098039%,8.235294%);fill-opacity:1;" d="M 176.617188 227.171875 C 177.226562 226.558594 178.515625 225.609375 179.9375 225 C 181.90625 224.1875 183.53125 224.117188 184.957031 224.730469 C 186.382812 225.339844 187.535156 226.628906 188.210938 228.324219 C 189.773438 232.1875 188.078125 235.511719 184.550781 236.933594 C 183.125 237.476562 181.972656 237.679688 181.296875 237.613281 L 180.957031 235.308594 C 181.632812 235.308594 182.515625 235.238281 183.667969 234.765625 C 185.703125 233.953125 186.71875 232.050781 185.703125 229.542969 C 184.6875 227.171875 182.71875 226.289062 180.753906 227.171875 C 180.210938 227.375 179.734375 227.644531 179.601562 227.847656 L 180.617188 230.289062 L 182.3125 229.609375 L 183.195312 231.644531 L 179.191406 233.273438 Z M 187.332031 239.105469 C 187.128906 238.765625 186.71875 238.425781 186.042969 238.699219 C 185.363281 238.96875 185.296875 239.445312 185.363281 239.917969 L 184.144531 240.460938 C 183.667969 239.171875 183.941406 238.019531 185.5 237.339844 C 187.058594 236.664062 188.078125 237.339844 188.617188 238.5625 Z M 187.332031 239.105469 "/>
<g clip-path="url(#clip13)" clip-rule="nonzero">
<g clip-path="url(#clip14)" clip-rule="nonzero">
<path style=" stroke:none;fill-rule:nonzero;fill:rgb(86.27451%,5.098039%,8.235294%);fill-opacity:1;" d="M 170.265625 228.34375 L 172.816406 227.644531 L 176.136719 239.742188 L 173.585938 240.441406 Z M 170.265625 228.34375 "/>
</g>
</g>
<path style=" stroke:none;fill-rule:nonzero;fill:rgb(86.27451%,5.098039%,8.235294%);fill-opacity:1;" d="M 150.035156 234.765625 C 148.066406 234.765625 146.441406 236.390625 146.441406 238.359375 C 146.441406 240.324219 148.066406 241.953125 150.035156 241.953125 C 152 241.953125 153.628906 240.324219 153.628906 238.359375 C 153.628906 236.390625 152 234.765625 150.035156 234.765625 "/>
<path style=" stroke:none;fill-rule:nonzero;fill:rgb(86.27451%,5.098039%,8.235294%);fill-opacity:1;" d="M 166.648438 183.023438 L 168.273438 185.328125 L 173.023438 183.769531 L 170.105469 187.769531 L 170.851562 188.855469 L 173.023438 191.773438 L 168.273438 190.28125 L 165.359375 194.28125 L 165.359375 189.332031 L 160.679688 187.769531 L 165.359375 186.210938 L 165.359375 181.328125 Z M 166.648438 183.023438 "/>
<path style=" stroke:none;fill-rule:nonzero;fill:rgb(86.27451%,5.098039%,8.235294%);fill-opacity:1;" d="M 140.945312 198.011719 C 138.097656 195.5 136.335938 191.839844 136.335938 187.769531 C 136.335938 185.125 137.082031 182.683594 138.371094 180.582031 C 139.792969 178.34375 141.828125 176.515625 144.269531 175.363281 C 144.8125 175.089844 145.355469 174.886719 145.898438 174.75 C 147.1875 174.34375 148.542969 174.140625 149.964844 174.140625 C 154.78125 174.140625 159.054688 176.648438 161.492188 180.449219 C 159.527344 178.210938 156.613281 176.855469 153.425781 176.855469 C 151.796875 176.855469 150.304688 177.191406 148.882812 177.804688 C 148.40625 178.007812 147.863281 178.277344 147.457031 178.617188 C 145.21875 180.039062 143.523438 182.347656 142.847656 184.992188 C 142.640625 185.871094 142.507812 186.753906 142.507812 187.703125 C 142.507812 190.144531 143.320312 192.382812 144.675781 194.214844 C 146.644531 196.859375 149.832031 198.554688 153.355469 198.554688 C 154.101562 198.554688 154.78125 198.484375 155.457031 198.351562 C 157.832031 197.875 159.933594 196.65625 161.492188 194.960938 C 160.273438 196.925781 158.578125 198.484375 156.613281 199.570312 C 154.847656 200.585938 152.882812 201.128906 150.710938 201.265625 C 150.507812 201.265625 150.238281 201.265625 150.035156 201.265625 C 146.441406 201.402344 143.320312 200.113281 140.945312 198.011719 "/>
<path style=" stroke:none;fill-rule:nonzero;fill:rgb(86.27451%,5.098039%,8.235294%);fill-opacity:1;" d="M 150.78125 158 C 146.304688 151.152344 140.609375 145.320312 133.960938 140.507812 C 145.761719 127.417969 162.648438 119.960938 180.277344 119.960938 C 191.261719 119.960938 202.046875 122.875 211.539062 128.367188 C 209.707031 128.230469 207.945312 128.164062 206.183594 128.164062 C 183.738281 128.164062 163.121094 139.355469 150.78125 158 M 131.316406 138.742188 C 124.808594 134.539062 117.753906 131.554688 110.226562 129.859375 C 121.890625 112.703125 141.152344 102.464844 161.902344 102.464844 C 179.667969 102.464844 198.25 110.738281 210.046875 123.960938 C 201.300781 119.824219 189.839844 116.90625 180.210938 116.90625 C 161.5625 116.839844 143.726562 124.839844 131.316406 138.742188 M 106.835938 129.183594 C 102.972656 128.503906 99.105469 128.164062 95.378906 128.164062 C 93.140625 128.164062 90.835938 128.300781 88.527344 128.503906 C 97.34375 101.515625 122.296875 83.339844 150.78125 83.339844 C 175.667969 83.339844 198.316406 97.445312 209.371094 119.621094 C 197.027344 106.601562 179.871094 99.207031 161.902344 99.207031 C 139.863281 99.207031 119.449219 110.195312 107.246094 128.570312 Z M 106.835938 129.183594 "/>
</g>
</svg>
